<svg width="36" height="36" viewBox="0 0 36 36" fill="none" xmlns="http://www.w3.org/2000/svg">
<path d="M3.288 9.13196V28.608L12.828 32.832V13.08L3.288 9.13196Z" stroke="white" stroke-width="3" stroke-linecap="round" stroke-linejoin="round"/>
<path d="M22.488 11.748V28.608L32.028 32.832V13.08L23.904 9.71997" stroke="white" stroke-width="3" stroke-linecap="round" stroke-linejoin="round"/>
<path d="M22.428 11.2319V28.6079L12.888 32.8319V13.0799L13.608 12.7799" stroke="white" stroke-width="3" stroke-linecap="round" stroke-linejoin="round"/>
<path d="M17.604 18.432C17.604 18.432 22.164 11.94 22.8 10.032C22.9254 9.36483 22.9079 8.6787 22.7487 8.01884C22.5894 7.35898 22.292 6.74041 21.876 6.20396C21.3141 5.38091 20.5198 4.74388 19.5944 4.37413C18.669 4.00439 17.6544 3.91869 16.68 4.12796C15.8633 4.34186 15.1099 4.74894 14.4834 5.31489C13.8569 5.88084 13.3756 6.58909 13.08 7.37996C12.6716 8.21413 12.5655 9.16426 12.78 10.068C14.1771 12.9557 15.7397 15.7603 17.46 18.468L17.604 18.432Z" stroke="white" stroke-width="3" stroke-linecap="round" stroke-linejoin="round"/>
<path d="M17.832 10.632C18.6605 10.632 19.332 9.96039 19.332 9.13196C19.332 8.30353 18.6605 7.63196 17.832 7.63196C17.0036 7.63196 16.332 8.30353 16.332 9.13196C16.332 9.96039 17.0036 10.632 17.832 10.632Z" fill="white" stroke="white" stroke-miterlimit="10"/>
</svg>
