<svg id="레이어_1" data-name="레이어 1" xmlns="http://www.w3.org/2000/svg" viewBox="0 0 32 32"><defs><style>.cls-1{fill:none;stroke:#000;stroke-linecap:round;stroke-linejoin:round;stroke-width:2px;}</style></defs><path d="M5.71,3.34a9.28,9.28,0,0,0,1.9.19H24.92a9.37,9.37,0,0,0,1.91-.19l.33,5.83a3.07,3.07,0,0,1-.67.28,2.4,2.4,0,0,1-.75.14,1.6,1.6,0,0,1-.2-.45c-.12-.3-.25-.66-.4-1.09s-.29-.86-.43-1.32-.25-.84-.35-1.14H21.52l-3.85-.08V26.93c.32.05.64.11.95.18l.86.21.64.17c.16.05.24.09.24.11a5.89,5.89,0,0,1,0,.66,1.85,1.85,0,0,1-.18.69H12.36a2.61,2.61,0,0,1-.13-.77,1,1,0,0,1,.13-.65,1.08,1.08,0,0,1,.24-.13,2.54,2.54,0,0,1,.49-.17l.56-.15c.19,0,.34-.09.47-.11.42-.08.65-.23.67-.45s0-.56.06-.94,0-.74,0-1.1v-19L11,5.59H8.18c-.11.3-.22.68-.36,1.14s-.28.9-.43,1.32S7.11,8.84,7,9.14s-.18.45-.21.45A2.51,2.51,0,0,1,6,9.45a3.3,3.3,0,0,1-.67-.28Z"/><line class="cls-1" x1="5.15" y1="16.15" x2="27.15" y2="16.15"/></svg>